<svg id="Layer_1" data-name="Layer 1" xmlns="http://www.w3.org/2000/svg" viewBox="0 0 1574.5 1366.65">
    <defs>
        <style>.cls-1{fill:#fff;fill-rule:evenodd;}</style>
    </defs>
    <path class="cls-1"
          d="M705.93,1200.69H444.22c-76.32,0-146.28-30.53-197.88-80.9H705.93v80.9ZM211.84,1079.28A290.39,290.39,0,0,1,177.7,1015H705.93v64.27ZM165.6,974.47a301.6,301.6,0,0,1-7.12-65.76H705.93v65.76Zm-4.44-106.3c6.27-48.36,23.76-99,55-149.88L559.67,268.11c74.55-79.75,134.2-98.57,193.92-102.16V502.61L478.73,868.17Z"/>
    <path class="cls-1"
          d="M865.28,1200.69H1127c76.34,0,146.3-30.53,197.89-80.9H865.28v80.9Zm494.11-121.41a290.36,290.36,0,0,0,34.13-64.27H865.28v64.27Zm46.23-104.81a300.38,300.38,0,0,0,7.11-65.76H865.28v65.76Zm4.44-106.3c-6.28-48.36-23.77-99-55-149.88L1011.54,268.11C937,188.36,877.35,169.54,817.62,166V502.61l274.86,365.56Z"/>
</svg>